<svg width="155" height="42" viewBox="0 0 155 42" fill="none" xmlns="http://www.w3.org/2000/svg">
<path d="M5.96319 14.0006L15.3027 6.31208L17.2914 18.2446L5.96319 14.0006Z" stroke="#7A6ACB" stroke-width="3"/>
<path d="M34.0205 14.0161L24.6809 6.32752L22.6922 18.2601L34.0205 14.0161Z" stroke="#7A6ACB" stroke-width="3"/>
<path d="M17.4466 23.8555L15.1111 35.7251L5.99951 27.7678L17.4466 23.8555Z" stroke="#7A6ACB" stroke-width="3"/>
<path d="M22.537 23.8711L24.8725 35.7407L33.9841 27.7833L22.537 23.8711Z" stroke="#7A6ACB" stroke-width="3"/>
<path d="M51.3281 24.1719V26H45.6016V24.1719H51.3281ZM46.3594 14.625V26H44.0156V14.625H46.3594ZM60.3047 24.1719V26H54.25V24.1719H60.3047ZM55.0156 14.625V26H52.6719V14.625H55.0156ZM59.5156 19.2578V21.0391H54.25V19.2578H59.5156ZM60.2969 14.625V16.4609H54.25V14.625H60.2969ZM63.6016 14.625L65.7422 18.5938L67.8828 14.625H70.5625L67.2578 20.2656L70.6484 26H67.9453L65.7422 21.9531L63.5391 26H60.8203L64.2188 20.2656L60.9062 14.625H63.6016ZM73.7578 14.625L75.8984 18.5938L78.0391 14.625H80.7188L77.4141 20.2656L80.8047 26H78.1016L75.8984 21.9531L73.6953 26H70.9766L74.375 20.2656L71.0625 14.625H73.7578ZM87.9062 23.0234C87.9062 22.8203 87.875 22.638 87.8125 22.4766C87.7552 22.3099 87.6458 22.1589 87.4844 22.0234C87.3229 21.8828 87.0964 21.7448 86.8047 21.6094C86.513 21.474 86.1354 21.3333 85.6719 21.1875C85.1562 21.0208 84.6667 20.8333 84.2031 20.625C83.7448 20.4167 83.3385 20.1745 82.9844 19.8984C82.6354 19.6172 82.3594 19.2917 82.1562 18.9219C81.9583 18.5521 81.8594 18.1224 81.8594 17.6328C81.8594 17.1589 81.9635 16.7292 82.1719 16.3438C82.3802 15.9531 82.6719 15.6198 83.0469 15.3438C83.4219 15.0625 83.8646 14.8464 84.375 14.6953C84.8906 14.5443 85.4557 14.4688 86.0703 14.4688C86.9089 14.4688 87.6406 14.6198 88.2656 14.9219C88.8906 15.224 89.375 15.638 89.7188 16.1641C90.0677 16.6901 90.2422 17.2917 90.2422 17.9688H87.9141C87.9141 17.6354 87.8438 17.3438 87.7031 17.0938C87.5677 16.8385 87.3594 16.638 87.0781 16.4922C86.8021 16.3464 86.4531 16.2734 86.0312 16.2734C85.625 16.2734 85.2865 16.3359 85.0156 16.4609C84.7448 16.5807 84.5417 16.7448 84.4062 16.9531C84.2708 17.1562 84.2031 17.3854 84.2031 17.6406C84.2031 17.8333 84.25 18.0078 84.3438 18.1641C84.4427 18.3203 84.5885 18.4661 84.7812 18.6016C84.974 18.737 85.2109 18.8646 85.4922 18.9844C85.7734 19.1042 86.099 19.2214 86.4688 19.3359C87.0885 19.5234 87.6328 19.7344 88.1016 19.9688C88.5755 20.2031 88.9714 20.4661 89.2891 20.7578C89.6068 21.0495 89.8464 21.3802 90.0078 21.75C90.1693 22.1198 90.25 22.5391 90.25 23.0078C90.25 23.5026 90.1536 23.9453 89.9609 24.3359C89.7682 24.7266 89.4896 25.0573 89.125 25.3281C88.7604 25.599 88.3255 25.8047 87.8203 25.9453C87.3151 26.0859 86.75 26.1562 86.125 26.1562C85.5625 26.1562 85.0078 26.0833 84.4609 25.9375C83.9141 25.7865 83.4167 25.5599 82.9688 25.2578C82.526 24.9557 82.1719 24.5703 81.9062 24.1016C81.6406 23.6328 81.5078 23.0781 81.5078 22.4375H83.8594C83.8594 22.7917 83.9141 23.0911 84.0234 23.3359C84.1328 23.5807 84.2865 23.7786 84.4844 23.9297C84.6875 24.0807 84.9271 24.1901 85.2031 24.2578C85.4844 24.3255 85.7917 24.3594 86.125 24.3594C86.5312 24.3594 86.8646 24.3021 87.125 24.1875C87.3906 24.0729 87.5859 23.9141 87.7109 23.7109C87.8411 23.5078 87.9062 23.2786 87.9062 23.0234ZM97.9297 26V27.7109H90.8359V26H97.9297ZM102.461 26H99.9844L100 24.1719H102.461C103.076 24.1719 103.594 24.0339 104.016 23.7578C104.438 23.4766 104.755 23.0677 104.969 22.5312C105.188 21.9948 105.297 21.3464 105.297 20.5859V20.0312C105.297 19.4479 105.234 18.9349 105.109 18.4922C104.99 18.0495 104.81 17.6771 104.57 17.375C104.331 17.0729 104.036 16.8464 103.688 16.6953C103.339 16.5391 102.938 16.4609 102.484 16.4609H99.9375V14.625H102.484C103.245 14.625 103.94 14.7552 104.57 15.0156C105.206 15.2708 105.755 15.638 106.219 16.1172C106.682 16.5964 107.039 17.1693 107.289 17.8359C107.544 18.4974 107.672 19.2344 107.672 20.0469V20.5859C107.672 21.3932 107.544 22.1302 107.289 22.7969C107.039 23.4635 106.682 24.0365 106.219 24.5156C105.76 24.9896 105.211 25.3568 104.57 25.6172C103.935 25.8724 103.232 26 102.461 26ZM101.312 14.625V26H98.9688V14.625H101.312ZM117.008 24.1719V26H110.953V24.1719H117.008ZM111.719 14.625V26H109.375V14.625H111.719ZM116.219 19.2578V21.0391H110.953V19.2578H116.219ZM117 14.625V16.4609H110.953V14.625H117ZM124.297 23.0234C124.297 22.8203 124.266 22.638 124.203 22.4766C124.146 22.3099 124.036 22.1589 123.875 22.0234C123.714 21.8828 123.487 21.7448 123.195 21.6094C122.904 21.474 122.526 21.3333 122.062 21.1875C121.547 21.0208 121.057 20.8333 120.594 20.625C120.135 20.4167 119.729 20.1745 119.375 19.8984C119.026 19.6172 118.75 19.2917 118.547 18.9219C118.349 18.5521 118.25 18.1224 118.25 17.6328C118.25 17.1589 118.354 16.7292 118.562 16.3438C118.771 15.9531 119.062 15.6198 119.438 15.3438C119.812 15.0625 120.255 14.8464 120.766 14.6953C121.281 14.5443 121.846 14.4688 122.461 14.4688C123.299 14.4688 124.031 14.6198 124.656 14.9219C125.281 15.224 125.766 15.638 126.109 16.1641C126.458 16.6901 126.633 17.2917 126.633 17.9688H124.305C124.305 17.6354 124.234 17.3438 124.094 17.0938C123.958 16.8385 123.75 16.638 123.469 16.4922C123.193 16.3464 122.844 16.2734 122.422 16.2734C122.016 16.2734 121.677 16.3359 121.406 16.4609C121.135 16.5807 120.932 16.7448 120.797 16.9531C120.661 17.1562 120.594 17.3854 120.594 17.6406C120.594 17.8333 120.641 18.0078 120.734 18.1641C120.833 18.3203 120.979 18.4661 121.172 18.6016C121.365 18.737 121.602 18.8646 121.883 18.9844C122.164 19.1042 122.49 19.2214 122.859 19.3359C123.479 19.5234 124.023 19.7344 124.492 19.9688C124.966 20.2031 125.362 20.4661 125.68 20.7578C125.997 21.0495 126.237 21.3802 126.398 21.75C126.56 22.1198 126.641 22.5391 126.641 23.0078C126.641 23.5026 126.544 23.9453 126.352 24.3359C126.159 24.7266 125.88 25.0573 125.516 25.3281C125.151 25.599 124.716 25.8047 124.211 25.9453C123.706 26.0859 123.141 26.1562 122.516 26.1562C121.953 26.1562 121.398 26.0833 120.852 25.9375C120.305 25.7865 119.807 25.5599 119.359 25.2578C118.917 24.9557 118.562 24.5703 118.297 24.1016C118.031 23.6328 117.898 23.0781 117.898 22.4375H120.25C120.25 22.7917 120.305 23.0911 120.414 23.3359C120.523 23.5807 120.677 23.7786 120.875 23.9297C121.078 24.0807 121.318 24.1901 121.594 24.2578C121.875 24.3255 122.182 24.3594 122.516 24.3594C122.922 24.3594 123.255 24.3021 123.516 24.1875C123.781 24.0729 123.977 23.9141 124.102 23.7109C124.232 23.5078 124.297 23.2786 124.297 23.0234ZM130.727 14.625V26H128.391V14.625H130.727ZM141.938 20.0547V24.5625C141.76 24.776 141.487 25.0078 141.117 25.2578C140.747 25.5026 140.271 25.7135 139.688 25.8906C139.104 26.0677 138.398 26.1562 137.57 26.1562C136.836 26.1562 136.167 26.0365 135.562 25.7969C134.958 25.5521 134.438 25.1953 134 24.7266C133.568 24.2578 133.234 23.6849 133 23.0078C132.766 22.3255 132.648 21.5469 132.648 20.6719V19.9609C132.648 19.0859 132.76 18.3073 132.984 17.625C133.214 16.9427 133.539 16.3672 133.961 15.8984C134.383 15.4297 134.885 15.0729 135.469 14.8281C136.052 14.5833 136.701 14.4609 137.414 14.4609C138.404 14.4609 139.216 14.6224 139.852 14.9453C140.487 15.263 140.971 15.7057 141.305 16.2734C141.643 16.8359 141.852 17.4818 141.93 18.2109H139.656C139.599 17.8255 139.49 17.4896 139.328 17.2031C139.167 16.9167 138.935 16.6927 138.633 16.5312C138.336 16.3698 137.951 16.2891 137.477 16.2891C137.086 16.2891 136.737 16.3698 136.43 16.5312C136.128 16.6875 135.872 16.9193 135.664 17.2266C135.456 17.5339 135.297 17.9141 135.188 18.3672C135.078 18.8203 135.023 19.3464 135.023 19.9453V20.6719C135.023 21.2656 135.081 21.7917 135.195 22.25C135.31 22.7031 135.479 23.0859 135.703 23.3984C135.932 23.7057 136.214 23.9375 136.547 24.0938C136.88 24.25 137.268 24.3281 137.711 24.3281C138.081 24.3281 138.388 24.2969 138.633 24.2344C138.883 24.1719 139.083 24.0964 139.234 24.0078C139.391 23.9141 139.51 23.8255 139.594 23.7422V21.7266H137.453V20.0547H141.938ZM153.086 14.625V26H150.742L146.172 18.375V26H143.828V14.625H146.172L150.75 22.2578V14.625H153.086Z" fill="#7A6ACB"/>
</svg>
