<svg width="117" height="43" viewBox="0 0 117 43" fill="none" xmlns="http://www.w3.org/2000/svg">
<path d="M50.6445 4.9375L47.6797 22H44.2461L47.1992 4.9375H50.6445ZM55.9766 12.2266L55.4961 14.9688H47.9492L48.4297 12.2266H55.9766ZM58.0273 4.9375L57.5586 7.69141H49.2148L49.6953 4.9375H58.0273ZM68.1641 19.2578L67.6836 22H59.3281L59.8086 19.2578H68.1641ZM63.418 4.9375L60.4531 22H57.0195L59.9727 4.9375H63.418ZM79.0391 8.03125L72.1719 22H68.3984L77.5156 4.9375H79.9297L79.0391 8.03125ZM80.3984 22L78.3125 7.66797L78.4414 4.9375H80.7031L83.9258 22H80.3984ZM81.2656 15.6484L80.7852 18.4023H72.0078L72.4883 15.6484H81.2656ZM94.9297 17.4531C95 17.0391 94.9648 16.6914 94.8242 16.4102C94.6914 16.1211 94.4883 15.8789 94.2148 15.6836C93.9492 15.4805 93.6484 15.3086 93.3125 15.168C92.9844 15.0273 92.6562 14.8984 92.3281 14.7812C91.7266 14.5469 91.1328 14.2812 90.5469 13.9844C89.9688 13.6875 89.4414 13.3359 88.9648 12.9297C88.4883 12.5156 88.1172 12.0352 87.8516 11.4883C87.5859 10.9336 87.4766 10.2852 87.5234 9.54297C87.5781 8.69922 87.8164 7.96875 88.2383 7.35156C88.6602 6.73437 89.1953 6.23047 89.8438 5.83984C90.5 5.44141 91.2109 5.14844 91.9766 4.96094C92.75 4.77344 93.5078 4.6875 94.25 4.70312C95.3125 4.71875 96.2578 4.94141 97.0859 5.37109C97.9141 5.79297 98.5625 6.39453 99.0312 7.17578C99.5078 7.94922 99.7305 8.87891 99.6992 9.96484H96.3008C96.332 9.44922 96.2656 9.00391 96.1016 8.62891C95.9453 8.24609 95.6914 7.95312 95.3398 7.75C94.9961 7.53906 94.5547 7.42578 94.0156 7.41016C93.5547 7.40234 93.1016 7.47656 92.6562 7.63281C92.2188 7.78125 91.8398 8.01562 91.5195 8.33594C91.207 8.64844 91.0117 9.05469 90.9336 9.55469C90.8711 9.92188 90.9219 10.2383 91.0859 10.5039C91.2578 10.7695 91.4883 10.9961 91.7773 11.1836C92.0742 11.3711 92.3867 11.5312 92.7148 11.6641C93.0508 11.7891 93.3516 11.9023 93.6172 12.0039C94.25 12.2305 94.8594 12.5 95.4453 12.8125C96.0391 13.125 96.5625 13.4961 97.0156 13.9258C97.4688 14.3477 97.8164 14.8477 98.0586 15.4258C98.3008 15.9961 98.3984 16.6602 98.3516 17.418C98.2812 18.2852 98.0469 19.0273 97.6484 19.6445C97.25 20.2539 96.7344 20.7539 96.1016 21.1445C95.4688 21.5273 94.7773 21.8086 94.0273 21.9883C93.2773 22.168 92.5156 22.2539 91.7422 22.2461C90.8984 22.2305 90.1055 22.0977 89.3633 21.8477C88.6211 21.5977 87.9727 21.2383 87.418 20.7695C86.8633 20.293 86.4336 19.7109 86.1289 19.0234C85.832 18.3281 85.6953 17.5352 85.7188 16.6445L89.1523 16.6562C89.1211 17.1328 89.1562 17.5508 89.2578 17.9102C89.3672 18.2617 89.5391 18.5586 89.7734 18.8008C90.0156 19.043 90.3125 19.2266 90.6641 19.3516C91.0234 19.4688 91.4414 19.5312 91.918 19.5391C92.3789 19.5391 92.8242 19.4688 93.2539 19.3281C93.6836 19.1875 94.0508 18.9648 94.3555 18.6602C94.6602 18.3477 94.8516 17.9453 94.9297 17.4531ZM112.684 11.8867L112.203 14.6289H103.543L104.023 11.8867H112.684ZM106.262 4.9375L103.297 22H99.8633L102.816 4.9375H106.262ZM116.316 4.9375L113.352 22H109.941L112.895 4.9375H116.316Z" fill="#6852D7"/>
<path d="M49.5312 30.5469L49.25 32.1406H44.4609L44.7422 30.5469H49.5312ZM46.2891 28.4609H48.4844L47.1094 36.4688C47.0885 36.651 47.0885 36.8073 47.1094 36.9375C47.1354 37.0625 47.1953 37.1589 47.2891 37.2266C47.3828 37.2943 47.5286 37.3333 47.7266 37.3438C47.8359 37.349 47.9453 37.3464 48.0547 37.3359C48.1641 37.3203 48.276 37.3047 48.3906 37.2891L48.2344 38.9688C48.026 39.0312 47.8151 39.0755 47.6016 39.1016C47.3932 39.1328 47.1797 39.1484 46.9609 39.1484C46.4609 39.138 46.0495 39.0286 45.7266 38.8203C45.4089 38.612 45.1797 38.3255 45.0391 37.9609C44.9036 37.5911 44.8594 37.1641 44.9062 36.6797L46.2891 28.4609ZM52.6016 32.5078L51.4766 39H49.2812L50.75 30.5469H52.8125L52.6016 32.5078ZM55.3594 30.4766L55.0859 32.5781C54.9609 32.5573 54.8333 32.5391 54.7031 32.5234C54.5781 32.5078 54.4505 32.4974 54.3203 32.4922C54.0182 32.487 53.7448 32.526 53.5 32.6094C53.2552 32.6927 53.0417 32.8151 52.8594 32.9766C52.6823 33.1328 52.5312 33.3255 52.4062 33.5547C52.2865 33.7839 52.1953 34.0417 52.1328 34.3281L51.7031 34.1875C51.7552 33.7865 51.8411 33.3646 51.9609 32.9219C52.0859 32.474 52.2578 32.0573 52.4766 31.6719C52.7005 31.2812 52.9844 30.9661 53.3281 30.7266C53.6771 30.4818 54.1016 30.362 54.6016 30.3672C54.7318 30.3672 54.8568 30.3776 54.9766 30.3984C55.1016 30.4193 55.2292 30.4453 55.3594 30.4766ZM58.75 30.5469L57.2891 39H55.0859L56.5547 30.5469H58.75ZM56.7969 28.3828C56.7865 28.0286 56.901 27.7448 57.1406 27.5312C57.3854 27.3177 57.6797 27.2083 58.0234 27.2031C58.3516 27.1979 58.638 27.2969 58.8828 27.5C59.1276 27.6979 59.25 27.9661 59.25 28.3047C59.2604 28.6589 59.1432 28.9427 58.8984 29.1562C58.6536 29.3698 58.362 29.4792 58.0234 29.4844C57.6953 29.4896 57.4089 29.3932 57.1641 29.1953C56.9245 28.9974 56.8021 28.7266 56.7969 28.3828ZM63.8594 37.0938L64.4531 33.3047C64.4792 33.0755 64.4688 32.862 64.4219 32.6641C64.375 32.4661 64.2786 32.3099 64.1328 32.1953C63.9922 32.0755 63.7917 32.0104 63.5312 32C63.2969 31.9948 63.0859 32.0365 62.8984 32.125C62.7161 32.2083 62.5651 32.3307 62.4453 32.4922C62.3255 32.6484 62.2422 32.8359 62.1953 33.0547L59.9922 33.0703C60.0182 32.6016 60.1484 32.1979 60.3828 31.8594C60.6224 31.5156 60.9245 31.2344 61.2891 31.0156C61.6536 30.7969 62.0495 30.6354 62.4766 30.5312C62.9089 30.4271 63.3307 30.3802 63.7422 30.3906C64.3307 30.401 64.8542 30.5234 65.3125 30.7578C65.776 30.9922 66.1302 31.3281 66.375 31.7656C66.625 32.1979 66.7188 32.724 66.6562 33.3438L66.0703 36.9688C66.0234 37.2708 65.987 37.5885 65.9609 37.9219C65.9349 38.25 65.9818 38.5625 66.1016 38.8594L66.0859 39L63.9297 39.0078C63.8307 38.7005 63.7812 38.3854 63.7812 38.0625C63.7865 37.7344 63.8125 37.4115 63.8594 37.0938ZM64.7031 33.8516L64.4922 35.125L63.375 35.1172C63.151 35.1224 62.9271 35.1536 62.7031 35.2109C62.4844 35.263 62.2812 35.3464 62.0938 35.4609C61.9062 35.5703 61.75 35.7135 61.625 35.8906C61.5052 36.0677 61.4297 36.2839 61.3984 36.5391C61.3724 36.7214 61.3906 36.8854 61.4531 37.0312C61.5156 37.1719 61.612 37.2839 61.7422 37.3672C61.8776 37.4505 62.0391 37.4948 62.2266 37.5C62.4922 37.5052 62.7526 37.4557 63.0078 37.3516C63.263 37.2422 63.4844 37.0885 63.6719 36.8906C63.8594 36.6927 63.9896 36.4635 64.0625 36.2031L64.5312 37.1797C64.4062 37.4714 64.2474 37.7396 64.0547 37.9844C63.8672 38.2292 63.651 38.4427 63.4062 38.625C63.1615 38.8021 62.8932 38.9375 62.6016 39.0312C62.3099 39.1302 61.9974 39.1771 61.6641 39.1719C61.2005 39.1615 60.7734 39.0521 60.3828 38.8438C59.9974 38.6302 59.6901 38.3411 59.4609 37.9766C59.237 37.6068 59.1354 37.1771 59.1562 36.6875C59.1771 36.1354 59.3151 35.6771 59.5703 35.3125C59.8255 34.9427 60.1536 34.651 60.5547 34.4375C60.9609 34.224 61.401 34.0729 61.875 33.9844C62.3542 33.8906 62.8281 33.8438 63.2969 33.8438L64.7031 33.8516ZM70.6719 32.4766L69.5391 39H67.3359L68.8047 30.5469H70.8672L70.6719 32.4766ZM70.0234 34.4766L69.4766 34.4922C69.5339 33.987 69.6484 33.487 69.8203 32.9922C69.9922 32.4974 70.2266 32.0521 70.5234 31.6562C70.8255 31.2552 71.1927 30.9401 71.625 30.7109C72.0625 30.4818 72.5703 30.3724 73.1484 30.3828C73.6172 30.3984 74.0026 30.4974 74.3047 30.6797C74.612 30.8568 74.8464 31.0964 75.0078 31.3984C75.1745 31.7005 75.2812 32.0417 75.3281 32.4219C75.3802 32.8021 75.3854 33.1979 75.3438 33.6094L74.4375 39H72.2266L73.1406 33.5859C73.1719 33.3099 73.1641 33.0651 73.1172 32.8516C73.0703 32.638 72.9661 32.4688 72.8047 32.3438C72.6484 32.2188 72.4193 32.1536 72.1172 32.1484C71.7839 32.138 71.4948 32.2005 71.25 32.3359C71.0104 32.4714 70.8073 32.6536 70.6406 32.8828C70.474 33.112 70.3411 33.3646 70.2422 33.6406C70.1432 33.9167 70.0703 34.1953 70.0234 34.4766ZM82.7344 30.5469H84.75L83.3516 38.7109C83.2474 39.487 82.9896 40.1484 82.5781 40.6953C82.1667 41.2422 81.6432 41.6562 81.0078 41.9375C80.3776 42.2188 79.6771 42.3516 78.9062 42.3359C78.5312 42.3255 78.1615 42.2682 77.7969 42.1641C77.4323 42.0599 77.0911 41.9062 76.7734 41.7031C76.4557 41.5052 76.1797 41.2578 75.9453 40.9609L77.0312 39.6641C77.2604 39.9661 77.5312 40.2005 77.8438 40.3672C78.1562 40.5391 78.5026 40.6302 78.8828 40.6406C79.2891 40.651 79.6484 40.5781 79.9609 40.4219C80.2734 40.2656 80.5312 40.0443 80.7344 39.7578C80.9375 39.4714 81.0729 39.1302 81.1406 38.7344L82.2188 32.3906L82.7344 30.5469ZM76.4922 34.9297L76.5156 34.7656C76.5781 34.2344 76.7031 33.7083 76.8906 33.1875C77.0781 32.6615 77.3307 32.1849 77.6484 31.7578C77.9661 31.3307 78.3542 30.9922 78.8125 30.7422C79.2708 30.4922 79.8047 30.375 80.4141 30.3906C80.9766 30.4062 81.4323 30.5469 81.7812 30.8125C82.1302 31.0729 82.3958 31.4141 82.5781 31.8359C82.7604 32.2526 82.8802 32.7057 82.9375 33.1953C83 33.6849 83.0208 34.1615 83 34.625L82.9609 34.9922C82.8776 35.4609 82.7396 35.9427 82.5469 36.4375C82.3542 36.9323 82.1042 37.3906 81.7969 37.8125C81.4896 38.2292 81.1198 38.5625 80.6875 38.8125C80.2604 39.0625 79.7734 39.1797 79.2266 39.1641C78.6589 39.1484 78.1875 39.0104 77.8125 38.75C77.4427 38.4896 77.151 38.1536 76.9375 37.7422C76.7292 37.3255 76.5911 36.8724 76.5234 36.3828C76.4557 35.888 76.4453 35.4036 76.4922 34.9297ZM78.7188 34.7578L78.6953 34.9297C78.6693 35.1641 78.6589 35.4219 78.6641 35.7031C78.6745 35.9792 78.7161 36.2448 78.7891 36.5C78.8672 36.7552 78.9948 36.9661 79.1719 37.1328C79.349 37.2943 79.5938 37.3802 79.9062 37.3906C80.3177 37.4115 80.6693 37.3255 80.9609 37.1328C81.2578 36.9401 81.4948 36.6849 81.6719 36.3672C81.849 36.0443 81.9714 35.7031 82.0391 35.3438L82.1875 34.3047C82.2083 34.0547 82.2057 33.8047 82.1797 33.5547C82.1536 33.3047 82.0911 33.0755 81.9922 32.8672C81.8984 32.6589 81.7578 32.4896 81.5703 32.3594C81.388 32.2292 81.1458 32.1615 80.8438 32.1562C80.4948 32.1406 80.1927 32.2135 79.9375 32.375C79.6875 32.5365 79.4792 32.75 79.3125 33.0156C79.1458 33.276 79.013 33.5599 78.9141 33.8672C78.8151 34.1745 78.75 34.4714 78.7188 34.7578ZM89.3672 27L87.2891 39H85.0859L87.1641 27H89.3672ZM93.0469 39.1562C92.4688 39.1458 91.9479 39.0365 91.4844 38.8281C91.0208 38.6146 90.6328 38.3229 90.3203 37.9531C90.013 37.5833 89.7865 37.1536 89.6406 36.6641C89.4948 36.1745 89.4427 35.6484 89.4844 35.0859L89.5156 34.7656C89.5781 34.1771 89.7214 33.6172 89.9453 33.0859C90.1693 32.5547 90.4688 32.0859 90.8438 31.6797C91.2188 31.2682 91.6615 30.9479 92.1719 30.7188C92.6875 30.4844 93.2604 30.375 93.8906 30.3906C94.4792 30.401 94.9818 30.5208 95.3984 30.75C95.8151 30.9792 96.151 31.2865 96.4062 31.6719C96.6615 32.0573 96.8359 32.4974 96.9297 32.9922C97.0234 33.4818 97.0417 33.9948 96.9844 34.5312L96.8594 35.4688H90.3281L90.5703 33.9688L94.8828 33.9766L94.9219 33.7812C94.9635 33.4948 94.9505 33.2292 94.8828 32.9844C94.8151 32.7344 94.6875 32.5339 94.5 32.3828C94.3125 32.2318 94.0625 32.151 93.75 32.1406C93.3906 32.1302 93.0885 32.2057 92.8438 32.3672C92.599 32.5286 92.3984 32.7422 92.2422 33.0078C92.0859 33.2734 91.9661 33.5625 91.8828 33.875C91.7995 34.1823 91.7396 34.4792 91.7031 34.7656L91.6719 35.0781C91.6458 35.3542 91.6536 35.6302 91.6953 35.9062C91.737 36.1771 91.8177 36.4219 91.9375 36.6406C92.0625 36.8594 92.2318 37.0365 92.4453 37.1719C92.6641 37.3073 92.9375 37.3802 93.2656 37.3906C93.6823 37.401 94.0651 37.3203 94.4141 37.1484C94.7682 36.9714 95.0859 36.737 95.3672 36.4453L96.3516 37.6328C96.1172 37.987 95.8177 38.2786 95.4531 38.5078C95.0938 38.7318 94.7057 38.8958 94.2891 39C93.8724 39.1094 93.4583 39.1615 93.0469 39.1562Z" fill="#6852D7" fill-opacity="0.28"/>
<path d="M5.97955 15.0122L15.3191 7.32367L17.3078 19.2562L5.97955 15.0122Z" stroke="#6852D7" stroke-opacity="0.28" stroke-width="3"/>
<path d="M34.0368 15.0277L24.6973 7.33912L22.7086 19.2717L34.0368 15.0277Z" stroke="#6852D7" stroke-opacity="0.28" stroke-width="3"/>
<path d="M17.4629 24.8671L15.1275 36.7367L6.01587 28.7794L17.4629 24.8671Z" stroke="#6852D7" stroke-opacity="0.28" stroke-width="3"/>
<path d="M22.5534 24.8827L24.8888 36.7523L34.0005 28.7949L22.5534 24.8827Z" stroke="#6852D7" stroke-opacity="0.28" stroke-width="3"/>
</svg>
